<svg width="27" height="27" viewBox="0 0 27 27" fill="none" xmlns="http://www.w3.org/2000/svg">
<path d="M26.2287 22.5608H0.741111C0.413921 22.5608 0.148376 22.2953 0.148376 21.9681V5.00167C0.148376 4.67448 0.413921 4.40894 0.741111 4.40894H26.2287C26.5559 4.40894 26.8214 4.67448 26.8214 5.00167V21.9681C26.8214 22.2956 26.5559 22.5608 26.2287 22.5608ZM1.33385 21.3754H25.636V5.5944H1.33385V21.3754Z" fill="#6B7280"/>
<path d="M13.4849 18.0741C10.9542 18.0741 8.89563 16.0156 8.89563 13.4849C8.89563 10.9542 10.9545 8.89563 13.4849 8.89563C16.0156 8.89563 18.0741 10.9545 18.0741 13.4849C18.0741 16.0156 16.0156 18.0741 13.4849 18.0741ZM13.4849 10.0811C11.608 10.0811 10.0811 11.608 10.0811 13.4849C10.0811 15.3618 11.608 16.8887 13.4849 16.8887C15.3618 16.8887 16.8887 15.3618 16.8887 13.4849C16.8887 11.608 15.3618 10.0811 13.4849 10.0811Z" fill="#6B7280"/>
<path d="M4.04353 18.0741H0.741111C0.413921 18.0741 0.148376 17.8086 0.148376 17.4814V9.48836C0.148376 9.16117 0.413921 8.89563 0.741111 8.89563H4.04353C4.37072 8.89563 4.63626 9.16117 4.63626 9.48836V17.4817C4.63626 17.8089 4.37102 18.0741 4.04353 18.0741ZM1.33385 16.8887H3.4508V10.0811H1.33385V16.8887Z" fill="#6B7280"/>
<path d="M26.2287 18.0741H22.9263C22.5991 18.0741 22.3336 17.8086 22.3336 17.4814V9.48836C22.3336 9.16117 22.5991 8.89563 22.9263 8.89563H26.2287C26.5559 8.89563 26.8214 9.16117 26.8214 9.48836V17.4817C26.8214 17.8089 26.5559 18.0741 26.2287 18.0741ZM23.519 16.8887H25.636V10.0811H23.519V16.8887Z" fill="#6B7280"/>
<path d="M13.4849 22.5608C13.1577 22.5608 12.8922 22.2953 12.8922 21.9681V5.00167C12.8922 4.67448 13.1577 4.40894 13.4849 4.40894C13.8121 4.40894 14.0776 4.67448 14.0776 5.00167V21.9681C14.0776 22.2956 13.8121 22.5608 13.4849 22.5608Z" fill="#6B7280"/>
</svg>
